# xmcd
#
# Track frame offsets:
#	150
#	40532
#	75135
#	97403
#	122866
#	157005
#
# Disc length: 2536 seconds
#
# Revision: 1
# Processed by: cddbd v1.5.2PL0 Copyright (c) Steve Scherf et al.
# Submitted via: audiograbber 1.83.01
#
DISCID=4109e606
DTITLE=Larry Carlton - Eight Times Up
DYEAR=1983
DGENRE=West Coast Jazz, Blues Fusion
TTITLE0=Strikes Twice
TTITLE1=Salud
TTITLE2=Blues Bird
TTITLE3=Black And White
TTITLE4=Upper Kern
TTITLE5=House On The Hill
EXTD=YEAR: 1983
EXTT0=
EXTT1=
EXTT2=
EXTT3=
EXTT4=
EXTT5=
PLAYORDER=
